<?xml version="1.0"?>
<svg xmlns="http://www.w3.org/2000/svg" id="Outline" viewBox="0 0 512 512" width="512px" height="512px" class=""><g><path d="M472,24H40A24.028,24.028,0,0,0,16,48V464a24.028,24.028,0,0,0,24,24H472a24.028,24.028,0,0,0,24-24V48A24.028,24.028,0,0,0,472,24ZM40,40H472a8.009,8.009,0,0,1,8,8V88H32V48A8.009,8.009,0,0,1,40,40ZM472,472H40a8.009,8.009,0,0,1-8-8V104H480V464A8.009,8.009,0,0,1,472,472Z" data-original="#000000" class="active-path" data-old_color="#000000" fill="#0073BA"/><circle cx="120" cy="64" r="8" data-original="#000000" class="active-path" data-old_color="#000000" fill="#0073BA"/><circle cx="88" cy="64" r="8" data-original="#000000" class="active-path" data-old_color="#000000" fill="#0073BA"/><circle cx="56" cy="64" r="8" data-original="#000000" class="active-path" data-old_color="#000000" fill="#0073BA"/><path d="M440,136H72a8,8,0,0,0-8,8V432a8,8,0,0,0,8,8H440a8,8,0,0,0,8-8V144A8,8,0,0,0,440,136ZM313.916,401.056,337.6,366.228,376.886,424H324.572ZM306.93,424H220.536l43.2-93.008Zm-104.036,0H132.31L184,307.7l35.653,80.22ZM432,424H396.234l-52.019-76.5a8,8,0,0,0-13.231,0l-24.92,36.648-35.075-75.52a8,8,0,0,0-14.511,0L228.6,368.653l-37.289-83.9a8,8,0,0,0-14.622,0L114.8,424H80V152H432Z" data-original="#000000" class="active-path" data-old_color="#000000" fill="#0073BA"/><path d="M208,200h96a8,8,0,0,0,0-16H208a8,8,0,0,0,0,16Z" data-original="#000000" class="active-path" data-old_color="#000000" fill="#0073BA"/><path d="M144,232H376a8,8,0,0,0,0-16H144a8,8,0,0,0,0,16Z" data-original="#000000" class="active-path" data-old_color="#000000" fill="#0073BA"/><path d="M320,264a24,24,0,1,0,24,24A24.028,24.028,0,0,0,320,264Zm0,32a8,8,0,1,1,8-8A8.009,8.009,0,0,1,320,296Z" data-original="#000000" class="active-path" data-old_color="#000000" fill="#0073BA"/></g> </svg>
