<?xml version="1.0"?>
<svg xmlns="http://www.w3.org/2000/svg" id="Layer_3" enable-background="new 0 0 64 64" height="512px" viewBox="0 0 64 64" width="512px"><g><path d="m46.563 41.601c.278-.988.437-2.025.437-3.101 0-3.93-1.984-7.402-5-9.477v-27.023c0-.552-.447-1-1-1h-8c-.553 0-1 .448-1 1v25.558c-.693.224-1.364.507-2 .855v-18.413c0-.12-.021-.239-.063-.351l-3-8c-.147-.39-.52-.649-.937-.649s-.79.259-.937.649l-3 8c-.042.112-.063.231-.063.351v23.525c-3.315 1.177-5.735 4.239-5.971 7.894-4.624 1.3-8.029 5.546-8.029 10.581 0 6.065 4.935 11 11 11h24c6.065 0 11-4.935 11-11 0-4.732-3.057-8.896-7.437-10.399zm-12.563-18.601h2v-2h-2v-2h4v-2h-4v-2h2v-2h-2v-2h4v-2h-4v-2h2v-2h-2v-2h6v24.919c-1.383-.591-2.904-.919-4.5-.919-.506 0-1.006.038-1.5.104zm-8-18.152 1.557 4.152h-3.114zm-2 6.152h4v18.796c-1.045.897-1.932 1.986-2.606 3.224-.131-.006-.261-.02-.394-.02-.338 0-.671.022-1 .059zm19 50h-24c-4.963 0-9-4.037-9-9s4.037-9 9-9 9 4.037 9 9h2c0-6.065-4.935-11-11-11-.313 0-.621.021-.927.047.467-3.409 3.392-6.047 6.927-6.047 3.859 0 7 3.141 7 7h2c0-4.089-2.743-7.543-6.483-8.635 1.733-2.682 4.745-4.365 7.983-4.365 5.238 0 9.5 4.262 9.5 9.5s-4.262 9.5-9.5 9.5v2c4.559 0 8.495-2.674 10.354-6.529 3.617 1.21 6.146 4.635 6.146 8.529 0 4.963-4.037 9-9 9z" data-original="#000000" class="active-path" data-old_color="#000000" fill="#0073BA"/></g> </svg>
